<svg xmlns="http://www.w3.org/2000/svg" viewBox="0 0 900 600">
  <rect width="900" height="600" fill="#DE2910"/>
  <g transform="translate(150,120)" fill="#FFDE00">
    <polygon points="0,-80 18.5,-24.7 77.1,-24.7 29.3,9.4 47.8,64.7 0,30.6 -47.8,64.7 -29.3,9.4 -77.1,-24.7 -18.5,-24.7"/>
  </g>
  <g fill="#FFDE00">
    <polygon points="312,60 318,78 336,78 321,90 327,108 312,96 297,108 303,90 288,78 306,78" />
    <polygon points="360,120 366,138 384,138 369,150 375,168 360,156 345,168 351,150 336,138 354,138" />
    <polygon points="360,204 366,222 384,222 369,234 375,252 360,240 345,252 351,234 336,222 354,222" />
    <polygon points="312,264 318,282 336,282 321,294 327,312 312,300 297,312 303,294 288,282 306,282" />
  </g>
</svg>
