<svg xmlns="http://www.w3.org/2000/svg" viewBox="0 0 722 702">
  <path fill="#326CE5" d="M358.965 0c-10.186 0-19.463 5.81-23.852 14.933L219.093 252.08a27.08 27.08 0 00-2.087 7.058l-63.592 275.376a27.18 27.18 0 00.826 14.034l104.65 244.448c4.425 10.332 14.487 17.007 25.808 17.007h152.547c11.32 0 21.382-6.675 25.808-17.007l104.65-244.448a27.174 27.174 0 00.826-14.034l-63.592-275.376a27.024 27.024 0 00-2.087-7.058L387.83 14.933C383.44 5.81 374.163 0 363.977 0h-5.012z"/>
  <path fill="#fff" d="M358.965 73.953c-4.094 0-7.827 2.34-9.591 6.013l-93.478 194.597a10.845 10.845 0 00-.839 2.836l-50.957 220.62a10.923 10.923 0 00.331 5.64l83.896 195.907c1.779 4.153 5.826 6.841 10.383 6.841h122.523c4.557 0 8.604-2.688 10.383-6.84l83.896-195.908a10.923 10.923 0 00.331-5.64l-50.957-220.62a10.845 10.845 0 00-.84-2.836L370.57 79.966c-1.764-3.673-5.497-6.013-9.591-6.013h-2.013z"/>
  <path fill="#326CE5" d="M359.976 154.596l-19.852 114.12-92.556 48.287 14.847 109.254 77.15 80.553h40.822l77.15-80.553 14.847-109.254-92.556-48.287-19.852-114.12zm0 45.428l12.21 70.156-12.21 7.368-12.21-7.368 12.21-70.156zm-37.762 83.627l25.15 15.17v28.72l-35.89 19.91-20.076-7.892 30.816-55.908zm75.524 0l30.816 55.908-20.076 7.892-35.89-19.91v-28.72l25.15-15.17zm-37.762 57.24l26.62 14.766-26.62 25.19-26.62-25.19 26.62-14.766zm-65.862 22.03l15.48 6.088-6.57 38.39-39.08 3.424 30.17-47.902zm131.724 0l30.17 47.902-39.08-3.424-6.57-38.39 15.48-6.088zm-103.36 54.238l30.494-2.67 17.22 35.332-21.992 27.866-45.02-13.276 19.298-47.252zm75.006 0l19.298 47.252-45.02 13.276-21.992-27.866 17.22-35.332 30.494 2.67z"/>
</svg>
