<svg xmlns="http://www.w3.org/2000/svg" viewBox="0 0 448 512">
  <path fill="#FCC624" d="M220.8 123.3c1 .5 1.8 1.7 3 1.7 1.1 0 2.8-.4 2.9-1.5.2-1.4-1.9-2.3-3.2-2.9-1.7-.7-3.9-1-5.5-.1-.4.2-.8.7-.6 1.1.3 1.3 2.3 1.1 3.4 1.7zm-21.9 1.7c1.2 0 2-1.2 3-1.7 1.1-.6 3.1-.4 3.5-1.6.2-.4-.2-.9-.6-1.1-1.6-.9-3.8-.6-5.5.1-1.3.6-3.4 1.5-3.2 2.9.1 1 1.8 1.5 2.8 1.4zM420 403.8c-3.6-4-5.3-11.6-7.2-19.7-1.8-8.1-3.9-16.8-10.5-22.4-1.3-1.1-2.6-2.1-4-2.9-1.3-.8-2.7-1.5-4.1-2 9.2-27.3 5.6-54.5-3.7-79.1-11.4-30.1-31.3-56.4-46.5-74.4-17.1-21.5-33.7-41.9-33.4-72C311.1 85.4 315.7.1 234.8 0 132.4-.2 158 103.4 156.9 135.2c-1.7 23.4-6.4 41.8-22.5 64.7-18.9 22.5-45.5 58.8-58.1 96.7-6 17.9-8.8 36.1-6.2 53.3-6.5 5.8-11.4 14.7-16.6 20.2-4.2 4.3-10.3 5.9-17 8.3s-14 6-18.5 14.5c-2.1 3.9-2.8 8.1-2.8 12.4 0 3.9.6 7.9 1.2 11.8 1.2 8.1 2.5 15.7.8 20.8-5.2 14.4-5.9 24.4-2.2 31.7 3.8 7.3 11.4 10.5 20.1 12.3 17.3 3.6 40.8 2.7 59.3 12.5 19.8 10.4 39.9 14.1 55.9 10.4 11.6-2.6 21.1-9.6 25.9-20.2 12.5-.1 26.3-5.4 48.3-6.6 14.9-1.2 33.6 5.3 55.1 4.1.6 2.3 1.4 4.6 2.5 6.7v.1c8.3 16.7 23.8 24.3 40.3 23 16.6-1.3 34.1-11 48.3-27.9 13.6-16.4 36-23.2 50.9-32.2 7.4-4.5 13.4-10.1 13.9-18.3.4-8.2-4.4-17.3-15.5-29.7zM223.7 87.3c9.8-22.2 34.2-21.8 44-.4 6.5 14.2 3.6 30.9-4.3 40.4-1.6-.8-5.9-2.6-12.6-4.9 1.1-1.2 3.1-2.7 3.9-4.6 4.8-11.8-.2-27-9.1-27.3-7.3-.5-13.9 10.8-11.8 23-4.1-2-9.4-3.5-13-4.4-1-6.9-.3-14.6 2.9-21.8zM183 75.8c10.1 0 20.8 14.2 19.1 33.5-3.5 1-7.1 2.5-10.2 4.6 1.2-8.9-3.3-20.1-9.6-19.6-8.4.7-9.8 21.2-1.8 28.1 1 .8 1.9-.2-5.9 5.5-15.6-14.6-10.5-52.1 8.4-52.1zm-13.6 60.7c6.2-4.6 13.6-10 14.1-10.5 4.7-4.4 13.5-14.2 27.9-14.2 7.1 0 15.6 2.3 25.9 8.9 6.3 4.1 11.3 4.4 22.6 9.3 8.4 3.5 13.7 9.7 10.5 18.2-2.6 7.1-11 14.4-22.7 18.1-11.1 3.6-19.8 16-38.2 14.9-3.9-.2-7-1-9.6-2.1-8-3.5-12.2-10.4-20-15-8.6-4.8-13.2-10.4-14.7-15.3-1.4-4.9 0-9 4.2-12.3zm3.3 334c-2.7 35.1-43.9 34.4-75.3 18-29.9-15.8-68.6-6.5-76.5-21.9-2.4-4.7-2.4-12.7 2.6-26.4v-.2c2.4-7.6.6-16-.6-23.9-1.2-7.8-1.8-15 .9-20 3.5-6.7 8.5-9.1 14.8-11.3 10.3-3.7 11.8-3.4 19.6-9.9 5.5-5.7 9.5-12.9 14.3-18 5.1-5.5 10-8.1 17.7-6.9 8.1 1.2 15.1 6.8 21.9 16l19.6 35.6c9.5 19.9 43.1 48.4 41 68.9zm-30.5-282.1c-.1-.1-.2-.4-.3-.5 11.5-4.3 20.1-10.1 25.7-15.2 2.2 1.7 4.5 3.4 6.4 5-.8.8-1.6 1.6-2.4 2.4-8.3 9.1-21.2 10.5-29.4 8.3zm5.9 182.6c1.1-15.9 3.3-36.8 11.9-50.1 2 2.6 4 5.5 5.9 8.5 5.8 9 10.7 20 10.7 32.9 0 9.1-5 18.3-10.7 18.3-5.5 0-18.1-4.4-17.8-9.6zm188.6 24.9c-2.3 23.9-27.3 36.3-61.2 43.2-29.2 5.9-51.1-17.2-72.7-41.6l-24.8-31.2c-17.9-15.3-28.1-45.5-26-63.6 2.6-22.8 19.7-34.6 25.2-44.3 4.5-7.9 4.3-16.1 3.2-22.8l-.1-.7c-1.1-6.1-2.9-10.6-3.7-14.6-.4-2.1 1.4-4.3 3.6-4.8l.4-.1c2.8-.7 5.9-1.1 9.2-1.3 7.8-.4 12.6 1.2 16.8 5.7l-.2.2c3.4 3.7 5.1 10.6 4.5 17.8-.5 5.2-5.5 29.4 4.3 33.4 1.3.6 3.2 0 5.3-1.2 1.4-.8 2.7-1.8 3.9-2.8 6.5-5.5 8.7-12.3 6.7-25.4 1.4.4 3.9.4 5.6.8-3.3 29.3-14.1 52.7-19.8 80.5l5.7-5.2c4.5-4 9.2-8.3 14.4-11.9 1.6-1.1 3-2.5 4.4-3.9 4.4-4.2 8.2-8.3 15.4-8.6 6.6-.3 11.3 4.8 13.2 6.4 5.6 4.8 10.2 9.9 14.5 14.7 8.1 9 15.3 17.5 24.1 21.9 6.3 3.1 12.7 4.7 18.7 5.8l.5.1c.5.1.9.2 1.4.3.4.1.9.2 1.3.3 8.1 1.8 14.7 3.4 19.4 7.8 3 2.8 5.1 6.3 6.5 10.4.1.3.2.5.3.8 2.4 6.8 2.2 14.6-.5 23.2zm-19.6-107.9c-4.8 1-15.4 2.3-20.7 3.7 1.6-17.7 1.5-35.5-.7-52.3 14.6 13.2 25.1 30.4 21.4 48.6zm31.2 14c5.4 5.8 7.9 9.6 7.2 11.8-.5 1.5-4.6 4.2-14.1 9.1-3.7 1.9-7.3 4.2-11 6.6 0-.3-.1-.5-.2-.8-2.4-5.9-5.5-10.8-8.7-15.7 7.8-3.3 17.6-7.5 26.8-11zm-9.6-43.5c.8-19.4-13.3-29.2-23.6-41.3-.1-.1-.2-.3-.3-.4-.2-.2-.3-.4-.5-.6-1.1-1.4-2.2-2.8-3.3-4.3.3-.4.6-.8 1-1.1 1.9-1.9 4.2-3.4 6.6-4.6 1.1-.5 2.2-1 3.4-1.4 13.1-4.5 32.4 3.4 35.3 19.1 2.6 13.5-5.2 27.3-18.6 34.6z"/>
</svg>
